<svg width="131" height="131" viewBox="0 0 131 131" fill="none" xmlns="http://www.w3.org/2000/svg">
<g clip-path="url(#clip0_6_5)">
<path fill-rule="evenodd" clip-rule="evenodd" d="M57.903 15.0731C57.7797 15.0263 57.6436 15.0276 57.5237 15.0766L3.46288 37.1616C3.20724 37.266 3.09217 37.5547 3.20586 37.8063L45.0999 130.544C45.2136 130.796 45.513 130.915 45.7686 130.811L117.791 101.388C118.046 101.284 118.161 100.995 118.048 100.744L75.9476 7.54999L83.2969 23.8188C83.4786 24.2209 83.0806 24.6263 82.6605 24.4669L57.903 15.0731Z" fill="#010101"/>
<path fill-rule="evenodd" clip-rule="evenodd" d="M77.4539 4.1259C77.3429 4.05816 77.2107 4.03493 77.0848 4.06104L19.5915 15.9797C19.3211 16.0358 19.1519 16.2994 19.2137 16.5686L41.8194 115.18C41.8811 115.449 42.1504 115.622 42.4208 115.566L119.014 99.6878C119.284 99.6318 119.453 99.3681 119.392 99.099L100.949 18.6504C100.919 18.5172 100.835 18.4013 100.717 18.3294L77.4539 4.1259Z" fill="#3C3C3C"/>
<path fill-rule="evenodd" clip-rule="evenodd" d="M106.357 0.137673C106.264 0.0492883 106.141 0 106.012 0H47.1667C46.8905 0 46.6667 0.22386 46.6667 0.500002V101.425C46.6667 101.701 46.8905 101.925 47.1667 101.925H125.561C125.837 101.925 126.061 101.701 126.061 101.425L126.061 19.0895C126.061 18.9526 126.004 18.8216 125.905 18.7272L106.357 0.137673Z" fill="#767676"/>
<path d="M86.3636 101.925C114.152 62.2876 95.6263 16.9875 86.3636 0H106.212L126.061 18.875V101.925H86.3636Z" fill="#636363"/>
<path d="M126.061 18.875L106.212 0V18.375C106.212 18.6512 106.436 18.875 106.712 18.875H126.061Z" fill="#3B3B3B"/>
<path d="M62.5455 30.2H110.182" stroke="white" stroke-width="3" stroke-linecap="round"/>
<path d="M62.5455 52.8501H110.182" stroke="white" stroke-width="3" stroke-linecap="round"/>
<path d="M62.5455 41.5251H110.182" stroke="white" stroke-width="3" stroke-linecap="round"/>
<path d="M62.5455 64.175H110.182" stroke="white" stroke-width="3" stroke-linecap="round"/>
<path d="M62.5455 75.5001H110.182" stroke="white" stroke-width="3" stroke-linecap="round"/>
</g>
<defs>
<clipPath id="clip0_6_5">
<rect width="131" height="131" fill="white"/>
</clipPath>
</defs>
</svg>
