<svg id="Layer_1" data-name="Layer 1" xmlns="http://www.w3.org/2000/svg" viewBox="0 0 798.25 207.47"><defs><style>.cls-1{fill:#2d5594;}</style></defs><path class="cls-1" d="M316.92,34.11a5.51,5.51,0,0,1,4.26,1.78,6.29,6.29,0,0,1,1.62,4.41V77a30.18,30.18,0,0,1-3.6,14.9A26.11,26.11,0,0,1,309.32,102a28.59,28.59,0,0,1-14.6,3.65A28.88,28.88,0,0,1,280.07,102a26,26,0,0,1-9.93-10.14,30.18,30.18,0,0,1-3.6-14.9V40.3a5.88,5.88,0,0,1,1.83-4.41A6.41,6.41,0,0,1,273,34.11a6,6,0,0,1,4.21,1.78,5.81,5.81,0,0,1,1.87,4.41V77a17,17,0,0,0,2.18,8.77,15.56,15.56,0,0,0,13.43,7.76,16.8,16.8,0,0,0,8.11-2A15.93,15.93,0,0,0,311.25,77V40.3a6.5,6.5,0,0,1,1.52-4.41A5.18,5.18,0,0,1,316.92,34.11Z" transform="translate(-23.69 -10.08)"/><path class="cls-1" d="M387.68,37.66a5.4,5.4,0,0,1,3.09,4.16A6.28,6.28,0,0,1,389.3,47a4.61,4.61,0,0,1-3.4,2,7.79,7.79,0,0,1-4.2-.81,26.8,26.8,0,0,0-5.12-1.72,25.17,25.17,0,0,0-5.63-.61,26.12,26.12,0,0,0-9.78,1.73,20.56,20.56,0,0,0-7.35,4.91,21.16,21.16,0,0,0-4.61,7.55,28.2,28.2,0,0,0-1.57,9.63,29.64,29.64,0,0,0,1.77,10.75,20.91,20.91,0,0,0,4.92,7.6,19.69,19.69,0,0,0,7.4,4.51A28,28,0,0,0,371,94a30.58,30.58,0,0,0,5.47-.5,18.82,18.82,0,0,0,5.28-1.83,7.26,7.26,0,0,1,4.2-.71,5.29,5.29,0,0,1,3.5,2.13,6.13,6.13,0,0,1,1.47,5.22,5.33,5.33,0,0,1-3.09,3.9,35.48,35.48,0,0,1-5.42,2.18,39.94,39.94,0,0,1-5.63,1.32,35.68,35.68,0,0,1-5.78.46,41,41,0,0,1-13.84-2.33A35.2,35.2,0,0,1,345.46,97a31.77,31.77,0,0,1-8.06-11.4,39.91,39.91,0,0,1-2.94-15.87,37.77,37.77,0,0,1,2.68-14.39,33.41,33.41,0,0,1,7.61-11.4,35.11,35.11,0,0,1,11.6-7.51A38.85,38.85,0,0,1,371,33.71a37.87,37.87,0,0,1,8.72,1A35.79,35.79,0,0,1,387.68,37.66Z" transform="translate(-23.69 -10.08)"/><path class="cls-1" d="M295.84,124.72a17.63,17.63,0,0,1,9.88,3,22.58,22.58,0,0,1,7.45,8.21,24.72,24.72,0,0,1,0,23,23.15,23.15,0,0,1-7.45,8.26,17.44,17.44,0,0,1-9.88,3.09H277.18l1-1.82v21a6.29,6.29,0,0,1-1.62,4.41,5.52,5.52,0,0,1-4.26,1.77,5.39,5.39,0,0,1-4.16-1.77,6.29,6.29,0,0,1-1.62-4.41V130.91a6.08,6.08,0,0,1,6.18-6.19Zm0,34.07a5.66,5.66,0,0,0,3.75-1.63,12.92,12.92,0,0,0,3-4.2,12.63,12.63,0,0,0,1.22-5.43,12.93,12.93,0,0,0-4.26-9.58,5.77,5.77,0,0,0-3.75-1.57H277l1.22-1.82v25.85l-1.12-1.62Z" transform="translate(-23.69 -10.08)"/><path class="cls-1" d="M370.55,140.44a5.92,5.92,0,0,1,4.36,1.72,6.08,6.08,0,0,1,1.72,4.46V189.5a6.1,6.1,0,0,1-1.72,4.41,6.25,6.25,0,0,1-8.72,0,6.06,6.06,0,0,1-1.72-4.41v-5l2.23.92a5.77,5.77,0,0,1-1.42,3.19,19.37,19.37,0,0,1-3.86,3.7,23.7,23.7,0,0,1-5.72,3.09,19.87,19.87,0,0,1-7.15,1.27,23.16,23.16,0,0,1-12.67-3.6,25.2,25.2,0,0,1-9-9.94,33.92,33.92,0,0,1,0-29.19,25.47,25.47,0,0,1,8.87-9.93,22.3,22.3,0,0,1,12.36-3.6,23.61,23.61,0,0,1,8,1.31,23.93,23.93,0,0,1,6.34,3.35,19,19,0,0,1,4.15,4.11,6.51,6.51,0,0,1,1.47,3.49L364.47,154v-7.4a6.06,6.06,0,0,1,1.72-4.41A5.83,5.83,0,0,1,370.55,140.44Zm-20.48,45.11a13.82,13.82,0,0,0,7.81-2.23,15.09,15.09,0,0,0,5.22-6.09,19.39,19.39,0,0,0,1.87-8.61,19.66,19.66,0,0,0-1.87-8.72,15,15,0,0,0-5.22-6.08,13.74,13.74,0,0,0-7.81-2.23,13.52,13.52,0,0,0-7.7,2.23,15,15,0,0,0-5.22,6.08,19.53,19.53,0,0,0-1.88,8.72,19.26,19.26,0,0,0,1.88,8.61,15.09,15.09,0,0,0,5.22,6.09A13.59,13.59,0,0,0,350.07,185.55Z" transform="translate(-23.69 -10.08)"/><path class="cls-1" d="M417.89,140.44a23.09,23.09,0,0,1,12.72,3.6,25.5,25.5,0,0,1,8.92,9.88,34.13,34.13,0,0,1,0,29.24,25.78,25.78,0,0,1-8.82,9.94,22.24,22.24,0,0,1-12.42,3.6,21.6,21.6,0,0,1-7.6-1.32,23.86,23.86,0,0,1-6.23-3.35,19.06,19.06,0,0,1-4.16-4.1,6.54,6.54,0,0,1-1.47-3.5l3.14-1.32v26.66a6.06,6.06,0,0,1-1.72,4.41,5.8,5.8,0,0,1-4.36,1.78,5.91,5.91,0,0,1-4.36-1.73,6,6,0,0,1-1.72-4.46V147.63a6.1,6.1,0,0,1,1.72-4.41,6.25,6.25,0,0,1,8.72,0,6.1,6.1,0,0,1,1.72,4.41v5l-1.72-.91a5.67,5.67,0,0,1,1.42-3.19,20.29,20.29,0,0,1,3.85-3.75,21.91,21.91,0,0,1,5.63-3.1A18.73,18.73,0,0,1,417.89,140.44Zm-1.52,11.15a13.72,13.72,0,0,0-7.81,2.23,15,15,0,0,0-5.22,6,19.32,19.32,0,0,0-1.88,8.67,19.74,19.74,0,0,0,1.88,8.66,15,15,0,0,0,5.22,6.14,13.79,13.79,0,0,0,7.81,2.23,13.55,13.55,0,0,0,7.75-2.23,15.09,15.09,0,0,0,5.17-6.14,19.74,19.74,0,0,0,1.88-8.66,19.32,19.32,0,0,0-1.88-8.67,15.16,15.16,0,0,0-5.17-6A13.48,13.48,0,0,0,416.37,151.59Z" transform="translate(-23.69 -10.08)"/><path class="cls-1" d="M479,196.7a29.76,29.76,0,0,1-14.95-3.6,24.86,24.86,0,0,1-9.73-9.78,28.52,28.52,0,0,1-3.4-14,30.71,30.71,0,0,1,3.7-15.56,26.21,26.21,0,0,1,9.68-9.89A25.07,25.07,0,0,1,477,140.44a23.08,23.08,0,0,1,9.78,2.13,26.78,26.78,0,0,1,8.16,5.82,28.42,28.42,0,0,1,5.62,8.57,26,26,0,0,1,2.08,10.34,5.22,5.22,0,0,1-1.92,3.95,6.43,6.43,0,0,1-4.26,1.52H457.72l-3-10.13h37.21l-2.23,2v-2.73a9.27,9.27,0,0,0-2.08-5.27,13.49,13.49,0,0,0-4.67-3.7,13.13,13.13,0,0,0-5.92-1.37,19.21,19.21,0,0,0-5.68.81,10.77,10.77,0,0,0-4.56,2.74,13.22,13.22,0,0,0-3.05,5.17,25.72,25.72,0,0,0-1.11,8.21,17.7,17.7,0,0,0,2.28,9.27,15.6,15.6,0,0,0,13.53,7.76,23.76,23.76,0,0,0,6-.61,13.67,13.67,0,0,0,3.6-1.47c.92-.57,1.74-1.07,2.49-1.47a7.66,7.66,0,0,1,3.44-.91,5.1,5.1,0,0,1,5.17,5.06c0,1.83-.94,3.49-2.84,5a23.27,23.27,0,0,1-7.39,3.9A29.41,29.41,0,0,1,479,196.7Z" transform="translate(-23.69 -10.08)"/><path class="cls-1" d="M519.36,195.68a5.83,5.83,0,0,1-4.36-1.77,6.06,6.06,0,0,1-1.72-4.41V147.63a6.1,6.1,0,0,1,1.72-4.41,6.25,6.25,0,0,1,8.72,0,6.14,6.14,0,0,1,1.72,4.41v9.53l-.71-6.79a15.81,15.81,0,0,1,2.89-4.31,17.34,17.34,0,0,1,4-3.14,18.6,18.6,0,0,1,4.77-1.88,22,22,0,0,1,5.07-.6,7.77,7.77,0,0,1,5.12,1.72,5.14,5.14,0,0,1,2.07,4.05c0,2.24-.57,3.84-1.72,4.82a5.67,5.67,0,0,1-3.75,1.47,8.48,8.48,0,0,1-3.5-.71,8.73,8.73,0,0,0-3.6-.71,8.9,8.9,0,0,0-3.7.86,10.14,10.14,0,0,0-3.44,2.69,14,14,0,0,0-2.54,4.51,18.83,18.83,0,0,0-1,6.34v24a6.1,6.1,0,0,1-1.72,4.41A5.84,5.84,0,0,1,519.36,195.68Z" transform="translate(-23.69 -10.08)"/><path class="cls-1" d="M558.89,136.38a6.29,6.29,0,0,1-4.41-1.62,5.5,5.5,0,0,1-1.77-4.26,5.33,5.33,0,0,1,1.77-4.2,6.39,6.39,0,0,1,4.41-1.58h45a6.29,6.29,0,0,1,4.41,1.63,5.49,5.49,0,0,1,1.77,4.25,5.35,5.35,0,0,1-1.77,4.21,6.39,6.39,0,0,1-4.41,1.57Zm22.4,59.3a6.42,6.42,0,0,1-4.66-1.77,5.88,5.88,0,0,1-1.82-4.41V130.71H588V189.5a5.82,5.82,0,0,1-1.88,4.41A6.74,6.74,0,0,1,581.29,195.68Z" transform="translate(-23.69 -10.08)"/><path class="cls-1" d="M619.71,195.68a5.83,5.83,0,0,1-4.36-1.77,6.06,6.06,0,0,1-1.72-4.41V147.63a6.1,6.1,0,0,1,1.72-4.41,6.25,6.25,0,0,1,8.72,0,6.1,6.1,0,0,1,1.73,4.41v9.53l-.71-6.79a15.78,15.78,0,0,1,2.88-4.31,17.39,17.39,0,0,1,4-3.14,18.39,18.39,0,0,1,4.76-1.88,22,22,0,0,1,5.07-.6,7.75,7.75,0,0,1,5.12,1.72,5.13,5.13,0,0,1,2.08,4.05c0,2.24-.58,3.84-1.72,4.82a5.67,5.67,0,0,1-3.76,1.47,8.4,8.4,0,0,1-3.49-.71,8.73,8.73,0,0,0-3.6-.71,8.87,8.87,0,0,0-3.7.86,10.26,10.26,0,0,0-3.45,2.69,14,14,0,0,0-2.53,4.51,18.59,18.59,0,0,0-1,6.34v24a6.07,6.07,0,0,1-1.73,4.41A5.83,5.83,0,0,1,619.71,195.68Z" transform="translate(-23.69 -10.08)"/><path class="cls-1" d="M700.81,140.44a5.9,5.9,0,0,1,4.36,1.72,6,6,0,0,1,1.72,4.46V189.5a6.06,6.06,0,0,1-1.72,4.41,6.25,6.25,0,0,1-8.72,0,6.06,6.06,0,0,1-1.72-4.41v-5l2.23.92a5.77,5.77,0,0,1-1.42,3.19,19.57,19.57,0,0,1-3.85,3.7,24,24,0,0,1-5.73,3.09,19.87,19.87,0,0,1-7.15,1.27,23.16,23.16,0,0,1-12.67-3.6,25.28,25.28,0,0,1-9-9.94,33.92,33.92,0,0,1,0-29.19A25.47,25.47,0,0,1,666,144a22.34,22.34,0,0,1,12.37-3.6,23.59,23.59,0,0,1,8,1.31,23.93,23.93,0,0,1,6.34,3.35,19.09,19.09,0,0,1,4.16,4.11,6.51,6.51,0,0,1,1.47,3.49L694.73,154v-7.4a6.06,6.06,0,0,1,1.72-4.41A5.83,5.83,0,0,1,700.81,140.44Zm-20.48,45.11a13.79,13.79,0,0,0,7.81-2.23,15.09,15.09,0,0,0,5.22-6.09,19.39,19.39,0,0,0,1.87-8.61,19.66,19.66,0,0,0-1.87-8.72,15,15,0,0,0-5.22-6.08,13.72,13.72,0,0,0-7.81-2.23,13.54,13.54,0,0,0-7.7,2.23,15,15,0,0,0-5.22,6.08,19.66,19.66,0,0,0-1.88,8.72,19.4,19.4,0,0,0,1.88,8.61,15.09,15.09,0,0,0,5.22,6.09A13.62,13.62,0,0,0,680.33,185.55Z" transform="translate(-23.69 -10.08)"/><path class="cls-1" d="M744.19,140.44a37.35,37.35,0,0,1,10.09,1.21,16.42,16.42,0,0,1,6.69,3.4,6.82,6.82,0,0,1,2.38,5.22,6.59,6.59,0,0,1-1.21,3.8,4,4,0,0,1-3.55,1.77,6.31,6.31,0,0,1-4.56-1.62,10.67,10.67,0,0,0-1.93-1.31,9.2,9.2,0,0,0-3.09-1,21.18,21.18,0,0,0-3.09-.35,16.3,16.3,0,0,0-8.77,2.23,14.83,14.83,0,0,0-5.53,6,19.19,19.19,0,0,0-1.92,8.77,18.52,18.52,0,0,0,2,8.67,15.46,15.46,0,0,0,5.47,6,14.72,14.72,0,0,0,8.06,2.23,26.12,26.12,0,0,0,4.36-.31,10.62,10.62,0,0,0,3-.91,19.26,19.26,0,0,0,2.53-1.72,5.21,5.21,0,0,1,3.35-.92,5,5,0,0,1,4,1.68,6.09,6.09,0,0,1,1.42,4.1q0,2.53-2.84,4.61a22.52,22.52,0,0,1-7.45,3.35,37.72,37.72,0,0,1-10,1.27A25.59,25.59,0,0,1,729.8,193a24.75,24.75,0,0,1-9.07-10.09,31.5,31.5,0,0,1-3.2-14.29,30.47,30.47,0,0,1,3.4-14.65,25.12,25.12,0,0,1,9.43-9.93A26.46,26.46,0,0,1,744.19,140.44Z" transform="translate(-23.69 -10.08)"/><path class="cls-1" d="M798.33,196.7a29.8,29.8,0,0,1-15-3.6,24.86,24.86,0,0,1-9.73-9.78,28.62,28.62,0,0,1-3.39-14,30.71,30.71,0,0,1,3.7-15.56,26.14,26.14,0,0,1,9.68-9.89,25,25,0,0,1,12.67-3.44,23.08,23.08,0,0,1,9.78,2.13,26.78,26.78,0,0,1,8.16,5.82,28.45,28.45,0,0,1,5.63,8.57A26.13,26.13,0,0,1,822,167.3a5.2,5.2,0,0,1-1.93,3.95,6.43,6.43,0,0,1-4.26,1.52H777l-3-10.13h37.2l-2.23,2v-2.73a9.27,9.27,0,0,0-2.08-5.27,13.45,13.45,0,0,0-4.66-3.7,13.2,13.2,0,0,0-5.93-1.37,19.26,19.26,0,0,0-5.68.81,10.77,10.77,0,0,0-4.56,2.74,13.2,13.2,0,0,0-3,5.17,25.42,25.42,0,0,0-1.12,8.21,17.7,17.7,0,0,0,2.28,9.27,15.6,15.6,0,0,0,13.54,7.76,23.82,23.82,0,0,0,6-.61,14,14,0,0,0,3.6-1.47c.91-.57,1.74-1.07,2.48-1.47a7.73,7.73,0,0,1,3.45-.91,5.1,5.1,0,0,1,5.17,5.06q0,2.74-2.84,5a23.45,23.45,0,0,1-7.4,3.9A29.39,29.39,0,0,1,798.33,196.7Z" transform="translate(-23.69 -10.08)"/><path class="cls-1" d="M127.43,10.08A103.75,103.75,0,0,0,38.26,166.85c19.77-7,29.63-11.91,29.73-12a4,4,0,0,1,3.62,7.18c-.4.21-9.76,4.89-28.84,11.72A103.74,103.74,0,1,0,127.43,10.08Zm70.62,86.26-67.8,64.26a1.15,1.15,0,0,1-1.64-.07l-15.32-17,0,.06L85.55,156.37,100.27,129l70.26-27.07,3.78-1.69-4.45.46-87.59,10.7-.44-.43-17.93-18a1.15,1.15,0,0,1,.84-2l132.55,3.39A1.15,1.15,0,0,1,198.05,96.34Z" transform="translate(-23.69 -10.08)"/></svg>