<svg id="Layer_1" data-name="Layer 1" xmlns="http://www.w3.org/2000/svg" viewBox="0 0 971.95 736.09"><defs><style>.cls-1,.cls-2{fill:#2d5594;}.cls-2{font-size:134.88px;font-family:Quicksand-Bold, Quicksand;font-weight:700;}.cls-3{letter-spacing:0em;}.cls-4{letter-spacing:-0.01em;}.cls-5{letter-spacing:-0.06em;}.cls-6{letter-spacing:-0.01em;}</style></defs><path class="cls-1" d="M512,16c-157.79,0-285.7,127.91-285.7,285.7a284.47,284.47,0,0,0,29.81,127.16c5.62-1.69,11.28-3.46,17.3-5.38A9.12,9.12,0,0,1,279,440.82c-4.85,1.55-9.47,3-14,4.39,49.5,85,141.6,142.14,247.06,142.14,157.79,0,285.7-127.91,285.7-285.69S669.79,16,512,16ZM394.28,395.89c-1,.49-24.39,12.22-72.33,29a8.87,8.87,0,0,1-2.06.46,9.12,9.12,0,0,1-4-17.68c46.66-16.34,69.92-28,70.15-28.09a9.12,9.12,0,1,1,8.21,16.29ZM681.06,246.8,527.28,392.55a2.6,2.6,0,0,1-3.73-.15l-34.74-38.65.11.13-63,29.07,33.4-62.15,159.35-61.39,8.58-3.84-10.09,1.06L418.45,280.89l-1-1-40.67-40.85a2.61,2.61,0,0,1,1.92-4.44l300.63,7.68A2.61,2.61,0,0,1,681.06,246.8Z" transform="translate(-26.03 -15.96)"/><text class="cls-2" transform="translate(0 706.28)">UC <tspan class="cls-3" x="217.43" y="0">P</tspan><tspan x="298.09" y="0">ape</tspan><tspan class="cls-4" x="547.08" y="0">r</tspan><tspan class="cls-5" x="604.26" y="0">T</tspan><tspan class="cls-6" x="680.61" y="0">r</tspan><tspan x="737.53" y="0">ace</tspan></text></svg>