<?xml version="1.0" encoding="utf-8"?>
<!-- Generator: Adobe Illustrator 25.1.0, SVG Export Plug-In . SVG Version: 6.00 Build 0)  -->
<svg version="1.1" id="Layer_1" xmlns="http://www.w3.org/2000/svg" xmlns:xlink="http://www.w3.org/1999/xlink" x="0px" y="0px"
	 viewBox="0 0 60 30" style="enable-background:new 0 0 60 30;" xml:space="preserve">
<style type="text/css">
	.st0{display:none;}
	.st1{display:inline;}
	.st2{fill:#2D5594;}
	.st3{display:inline;fill:#2D5594;}
	.st4{fill:none;stroke:#2D5594;stroke-width:1.787;stroke-linecap:round;stroke-miterlimit:10;}
</style>
<g class="st0">
	<g class="st1">
		<path class="st2" d="M-4.98,43.18c-0.59,0.2-1.26-0.07-1.53-0.65c-0.29-0.62-0.03-1.37,0.6-1.66c4.92-2.32,4.89-2.34,8.11-4.24
			c0.6-0.35,1.36-0.15,1.71,0.44c0.35,0.59,0.15,1.36-0.44,1.71c-3.29,1.94-3.3,1.98-8.31,4.35C-4.9,43.15-4.94,43.17-4.98,43.18z"
			/>
		<path class="st2" d="M9.89,34.9c-0.54,0.18-1.15-0.02-1.46-0.52c-0.37-0.58-0.19-1.35,0.39-1.72c5.75-3.61,9.5-6.56,9.53-6.59
			c0.54-0.43,1.32-0.34,1.75,0.2c0.43,0.54,0.34,1.32-0.2,1.75c-0.16,0.12-3.88,3.07-9.76,6.75C10.07,34.83,9.98,34.87,9.89,34.9z"
			/>
		<path class="st2" d="M-12.15,46.53c-0.61,0.21-1.29-0.09-1.55-0.69c-0.27-0.63,0.03-1.37,0.66-1.64c1.22-0.52,2.15-0.95,2.16-0.95
			c0.62-0.29,1.37-0.02,1.66,0.61c0.29,0.62,0.02,1.37-0.61,1.66c0,0-0.96,0.45-2.23,0.99C-12.1,46.51-12.13,46.52-12.15,46.53z"/>
	</g>
	<path class="st3" d="M43.35,5.72L25.09,17.63l-2.41,8.19l6.74-5.01l-0.02-0.01l5.08,3.71c0.14,0.1,0.34,0.07,0.45-0.08L49.51,3.34
		c0.16-0.23-0.04-0.54-0.32-0.49L13.4,9.43c-0.28,0.05-0.35,0.42-0.12,0.57l5.98,3.91L43.35,5.72z"/>
</g>
<g>
	<g>
		<path class="st2" d="M8.13,15.01v12.92c0,0.36,0.13,0.67,0.38,0.91c0.25,0.24,0.57,0.37,0.96,0.37c0.4,0,0.74-0.12,0.99-0.37
			c0.26-0.24,0.39-0.55,0.39-0.91V15.01H8.13z"/>
		<g>
			<path class="st2" d="M16.73,29.21c-0.36,0-0.66-0.12-0.9-0.37c-0.24-0.24-0.36-0.55-0.36-0.91v-8.64c0-0.36,0.12-0.67,0.36-0.91
				c0.24-0.24,0.54-0.37,0.9-0.37c0.36,0,0.66,0.12,0.9,0.37c0.24,0.24,0.36,0.55,0.36,0.91v1.97l-0.15-1.4
				c0.15-0.33,0.35-0.63,0.6-0.89c0.24-0.26,0.52-0.47,0.83-0.65c0.31-0.17,0.63-0.3,0.98-0.39c0.35-0.08,0.7-0.13,1.05-0.13
				c0.42,0,0.77,0.12,1.06,0.36c0.29,0.24,0.43,0.52,0.43,0.84c0,0.46-0.12,0.79-0.36,0.99c-0.24,0.2-0.5,0.3-0.77,0.3
				c-0.27,0-0.51-0.05-0.72-0.15S20.46,20,20.18,20c-0.25,0-0.51,0.06-0.76,0.18c-0.26,0.12-0.5,0.3-0.71,0.55
				c-0.22,0.25-0.39,0.56-0.52,0.93c-0.13,0.37-0.2,0.81-0.2,1.31v4.96c0,0.36-0.12,0.67-0.36,0.91
				C17.39,29.08,17.09,29.21,16.73,29.21z"/>
			<path class="st2" d="M33.47,17.8c0.36,0,0.66,0.12,0.9,0.36c0.24,0.24,0.36,0.54,0.36,0.92v8.85c0,0.36-0.12,0.67-0.36,0.91
				c-0.24,0.24-0.54,0.37-0.9,0.37c-0.36,0-0.66-0.12-0.9-0.37c-0.24-0.24-0.36-0.55-0.36-0.91V26.9l0.46,0.19
				c0,0.18-0.1,0.4-0.29,0.66c-0.2,0.26-0.46,0.51-0.8,0.76c-0.33,0.25-0.73,0.46-1.18,0.64c-0.45,0.17-0.94,0.26-1.48,0.26
				c-0.96,0-1.83-0.25-2.62-0.74c-0.78-0.5-1.4-1.18-1.85-2.05c-0.45-0.87-0.68-1.87-0.68-3c0-1.14,0.23-2.15,0.68-3.02
				c0.45-0.87,1.06-1.56,1.83-2.05c0.77-0.49,1.62-0.74,2.55-0.74c0.6,0,1.15,0.09,1.65,0.27c0.5,0.18,0.94,0.41,1.31,0.69
				c0.37,0.28,0.66,0.56,0.86,0.85c0.2,0.29,0.3,0.53,0.3,0.72l-0.75,0.27v-1.53c0-0.36,0.12-0.67,0.36-0.91
				C32.81,17.92,33.11,17.8,33.47,17.8z M29.24,27.11c0.61,0,1.15-0.15,1.61-0.46c0.46-0.31,0.82-0.73,1.08-1.26
				c0.26-0.53,0.39-1.12,0.39-1.78c0-0.67-0.13-1.27-0.39-1.8c-0.26-0.53-0.62-0.95-1.08-1.26c-0.46-0.31-1-0.46-1.61-0.46
				c-0.6,0-1.13,0.15-1.59,0.46c-0.46,0.31-0.82,0.73-1.08,1.26c-0.26,0.53-0.39,1.13-0.39,1.8c0,0.66,0.13,1.25,0.39,1.78
				c0.26,0.53,0.62,0.95,1.08,1.26C28.11,26.96,28.64,27.11,29.24,27.11z"/>
			<path class="st2" d="M42.43,17.8c0.8,0,1.49,0.08,2.08,0.25c0.59,0.17,1.05,0.4,1.38,0.7c0.33,0.3,0.49,0.66,0.49,1.08
				c0,0.28-0.08,0.54-0.25,0.78c-0.17,0.24-0.41,0.37-0.73,0.37c-0.22,0-0.41-0.03-0.55-0.09c-0.15-0.06-0.28-0.14-0.39-0.24
				c-0.11-0.1-0.24-0.19-0.4-0.27c-0.14-0.08-0.35-0.15-0.64-0.2c-0.29-0.05-0.5-0.07-0.64-0.07c-0.71,0-1.31,0.15-1.81,0.46
				c-0.5,0.31-0.88,0.72-1.14,1.25c-0.27,0.52-0.4,1.13-0.4,1.81c0,0.67,0.14,1.27,0.41,1.79c0.27,0.52,0.65,0.94,1.13,1.25
				c0.48,0.31,1.04,0.46,1.66,0.46c0.35,0,0.65-0.02,0.9-0.06c0.25-0.04,0.46-0.1,0.63-0.19c0.2-0.11,0.37-0.23,0.52-0.36
				c0.15-0.13,0.38-0.19,0.69-0.19c0.36,0,0.64,0.12,0.84,0.35c0.2,0.23,0.29,0.51,0.29,0.85c0,0.35-0.2,0.67-0.59,0.95
				c-0.39,0.29-0.9,0.52-1.54,0.69c-0.64,0.17-1.32,0.26-2.06,0.26c-1.1,0-2.06-0.25-2.87-0.76c-0.81-0.51-1.43-1.2-1.87-2.08
				c-0.44-0.88-0.66-1.86-0.66-2.95c0-1.14,0.23-2.15,0.7-3.02c0.47-0.87,1.12-1.56,1.95-2.05C40.4,18.05,41.35,17.8,42.43,17.8z"/>
			<path class="st2" d="M53.6,29.42c-1.19,0-2.21-0.25-3.09-0.74c-0.87-0.5-1.54-1.17-2.01-2.02c-0.47-0.85-0.7-1.81-0.7-2.89
				c0-1.26,0.25-2.33,0.76-3.21c0.51-0.89,1.18-1.57,2-2.04c0.82-0.47,1.7-0.71,2.62-0.71c0.71,0,1.38,0.15,2.02,0.44
				c0.63,0.29,1.2,0.69,1.68,1.2c0.49,0.51,0.88,1.1,1.16,1.77c0.29,0.67,0.43,1.38,0.43,2.13c-0.01,0.33-0.15,0.61-0.4,0.82
				c-0.25,0.21-0.54,0.31-0.88,0.31h-7.99l-0.63-2.09h7.68L55.8,22.8v-0.57c-0.03-0.4-0.17-0.77-0.43-1.09
				c-0.26-0.32-0.58-0.58-0.96-0.76c-0.38-0.19-0.79-0.28-1.22-0.28c-0.42,0-0.81,0.06-1.17,0.17c-0.36,0.11-0.68,0.3-0.94,0.56
				c-0.27,0.27-0.47,0.62-0.63,1.07c-0.15,0.45-0.23,1.01-0.23,1.7c0,0.75,0.16,1.39,0.47,1.91c0.31,0.52,0.72,0.92,1.21,1.19
				c0.5,0.27,1.02,0.41,1.58,0.41c0.52,0,0.93-0.04,1.23-0.13c0.31-0.08,0.55-0.18,0.74-0.3c0.19-0.12,0.36-0.22,0.51-0.3
				c0.25-0.13,0.49-0.19,0.71-0.19c0.31,0,0.56,0.1,0.76,0.31c0.2,0.21,0.3,0.45,0.3,0.73c0,0.38-0.2,0.72-0.59,1.03
				c-0.36,0.31-0.87,0.58-1.53,0.81C54.98,29.3,54.3,29.42,53.6,29.42z"/>
		</g>
	</g>
	<g>
		<g>
			<path class="st4" d="M15.67,13.53c-2.83,0.58-4.77,0.9-8.52,1.32"/>
			<path class="st4" d="M27.24,10.38c0,0-3.24,1.15-8.08,2.29"/>
			<path class="st4" d="M3.23,15.31c0,0-0.75,0.08-1.71,0.15"/>
		</g>
		<path class="st2" d="M43.21,4.16L31.83,7.06l-2.65,3.76l4.31-1.38l-0.01-0.01l1.94,2.77c0.05,0.08,0.16,0.1,0.24,0.04l11.1-8.21
			c0.12-0.09,0.07-0.28-0.08-0.3L27.3,0.85C27.15,0.82,27.05,1,27.14,1.12l2.36,3.03L43.21,4.16z"/>
	</g>
</g>
</svg>
