<svg width="131" height="131" viewBox="0 0 131 131" fill="none" xmlns="http://www.w3.org/2000/svg">
<path d="M33 58.1111L19.8499 66.8778C18.808 67.5725 18.287 67.9198 17.9098 68.3787C17.5759 68.7849 17.3254 69.253 17.1726 69.7562C17 70.3245 17 70.9507 17 72.203V105.044C17 107.285 17 108.405 17.436 109.26C17.8195 110.013 18.4314 110.625 19.184 111.008C20.0397 111.444 21.1598 111.444 23.4 111.444H106.6C108.84 111.444 109.96 111.444 110.816 111.008C111.569 110.625 112.181 110.013 112.564 109.26C113 108.405 113 107.285 113 105.044V72.203C113 70.9507 113 70.3245 112.827 69.7562C112.675 69.253 112.424 68.7849 112.09 68.3787C111.713 67.9198 111.192 67.5725 110.15 66.8778L97 58.1111" stroke="#222222" stroke-width="8"/>
<path d="M17 109.333V74.15C17 74.0672 17.0672 74 17.15 74H42.2251C43.086 74 43.8503 74.5509 44.1225 75.3675L48.5442 88.6325C48.8164 89.4491 49.5807 90 50.4415 90H79.5585C80.4193 90 81.1836 89.4491 81.4558 88.6325L85.8775 75.3675C86.1497 74.5509 86.914 74 87.7749 74H112.85C112.933 74 113 74.0672 113 74.15V109.333C113 110.438 112.105 111.333 111 111.333H19C17.8954 111.333 17 110.438 17 109.333Z" fill="#222222"/>
<path d="M47 43.4286L64.5 25M64.5 25L82 43.4286M64.5 25L64.5 68" stroke="#222222" stroke-width="8"/>
</svg>
